<?xml version="1.0" encoding="UTF-8" standalone="no"?>
<!-- Created with Inkscape (http://www.inkscape.org/) -->

<svg
   version="1.1"
   id="svg9"
   width="360"
   height="360"
   viewBox="0 0 300 300"
   sodipodi:docname="ash_elvish_alt.svg"
   inkscape:version="1.1 (c68e22c387, 2021-05-23)"
   inkscape:export-filename="C:\Users\jsawyer\Documents\ash_elvish_400.png"
   inkscape:export-xdpi="128"
   inkscape:export-ydpi="128"
   xmlns:inkscape="http://www.inkscape.org/namespaces/inkscape"
   xmlns:sodipodi="http://sodipodi.sourceforge.net/DTD/sodipodi-0.dtd"
   xmlns="http://www.w3.org/2000/svg"
   xmlns:svg="http://www.w3.org/2000/svg">
  <defs
     id="defs13" />
  <sodipodi:namedview
     id="namedview11"
     pagecolor="#ffffff"
     bordercolor="#666666"
     borderopacity="1.0"
     inkscape:pageshadow="2"
     inkscape:pageopacity="0.0"
     inkscape:pagecheckerboard="0"
     showgrid="false"
     inkscape:zoom="3.8966667"
     inkscape:cx="120.74422"
     inkscape:cy="170.53037"
     inkscape:window-width="2560"
     inkscape:window-height="1377"
     inkscape:window-x="1192"
     inkscape:window-y="-8"
     inkscape:window-maximized="1"
     inkscape:current-layer="layer1" />
  <g
     inkscape:groupmode="layer"
     id="layer1"
     inkscape:label="Image"
     style="display:inline">
    <path
       style="fill:#3a243b;fill-opacity:1"
       d="m 78.123254,248.99802 c -5.121236,-1.20915 -11.229889,-6.00016 -14.599595,-11.45047 -4.182351,-6.7647 -4.800262,-17.75103 -1.511048,-26.8661 4.61276,-12.78287 14.785519,-23.90075 27.824022,-30.40907 6.230647,-3.1101 8.367632,-3.67047 14.175847,-3.71727 8.65314,-0.0697 12.3221,2.18587 12.80244,7.87067 0.3776,4.46881 -1.63954,7.91505 -5.93204,10.13479 -4.00853,2.07289 -6.65648,1.33254 -11.274281,-3.15222 -3.5496,-3.44733 -4.041429,-3.62012 -9.10827,-3.19993 -9.540743,0.79119 -15.686816,7.94267 -17.083525,19.87814 -1.762827,15.06411 8.995123,28.82676 22.583196,28.89069 6.79115,0.0319 15.96821,-4.76027 23.45718,-12.24925 7.778,-7.77799 9.63255,-11.37694 13.5728,-26.33936 14.33887,-54.44949 28.2271,-88.12082 49.13752,-119.13153 12.98093,-19.251069 37.26104,-44.45785 41.32229,-42.8994 3.06218,1.175066 1.26495,4.06273 -9.38306,15.07612 -11.87607,12.28359 -20.21226,22.972388 -27.91647,35.794954 -18.68134,31.092436 -34.51604,75.835336 -47.16124,133.259876 -2.2872,10.38666 -4.54067,19.5883 -5.00772,20.44809 -2.04519,3.76497 -10.48482,9.93306 -11.79646,8.62142 -0.50146,-0.50146 0.91837,-9.0701 3.57222,-21.55817 0.46133,-2.17087 -0.24734,-1.78632 -5.38289,2.9209 -8.40506,7.70404 -19.60104,14.74759 -27.146209,17.07805 -6.836212,2.1115 -9.647585,2.29696 -15.144707,0.99907 z M 110.03599,149.75 c -0.50662,-1.2375 -1.42877,-5.4 -2.04922,-9.25 -0.62044,-3.85 -2.26317,-9.84 -3.6505,-13.3111 -2.77975,-6.95496 -2.55294,-10.66797 0.71502,-11.70518 3.38352,-1.07389 6.70865,1.96883 8.40911,7.69489 3.61081,12.1589 0.51368,36.19074 -3.42441,26.57139 z M 123,149.80817 c 0,-3.31226 7.62646,-15.46499 13.5301,-21.56017 4.24107,-4.37865 5.75871,-5.34144 8.001,-5.07581 4.28106,0.50715 5.37861,3.19047 2.9689,7.2584 C 145.36066,134.04209 125.8518,152 124.06772,152 123.48047,152 123,151.01368 123,149.80817 Z M 119.40165,134.25 c 1.47726,-16.89818 3.64735,-25.17439 7.51986,-28.67897 1.72638,-1.56235 2.51275,-1.6942 4.55496,-0.7637 5.15973,2.35093 4.34268,7.54778 -4.2023,26.72858 C 123.66623,139.63462 122.17299,142 120.6683,142 c -1.81659,0 -1.89971,-0.50854 -1.26665,-7.75 z"
       id="path525" />
  </g>
</svg>
